<svg preserveAspectRatio="none" overflow="visible" style="display: block;" width="85" height="95" viewBox="0 0 85 95" fill="none" xmlns="http://www.w3.org/2000/svg">
<g id="Frame 11">
<path id="Vector 1" d="M19 42L33 40L45 42L59.5 40L69.5 47.5L74 54.5L77.5 59L56 57.5L45 54.5H37L19 59L6 57.5L11.5 52L19 42Z" fill="white"/>
<path id="Vector" d="M16.7838 15.4775C17.6811 13.923 18.4668 12.5166 19.5529 11.0773C23.3345 6.15079 28.6492 2.60983 34.6666 1.00785C41.971 -1.00226 49.782 0.0205147 56.3157 3.84262C61.7868 6.97043 64.7179 10.6597 67.6951 15.9942C70.0387 15.6449 73.5855 17.1054 75.4697 18.4862C78.2156 20.4829 80.0545 23.4817 80.5833 26.8256C80.6708 27.4162 80.7225 28.0358 80.7719 28.6317C82.9534 30.1629 84.4321 32.4961 84.8811 35.1152C85.8628 40.6929 80.6087 47.9237 74.9304 48.5059C72.5748 48.7473 70.0934 48.4925 68.0534 47.2339C67.4809 46.7891 66.9055 46.3483 66.3268 45.9114C61.591 42.3513 56.6094 41.5074 50.7615 42.3681C49.3834 42.5709 47.8336 43.1422 46.5924 43.3033L46.4815 43.317C46.5146 44.7956 46.6507 46.3126 45.5068 47.4666C43.8786 49.1094 40.2855 49.1543 38.666 47.4712C37.5162 46.2762 37.5214 44.906 37.5551 43.3658C32.3071 41.5988 26.0174 41.4329 21 43.9583C18.9137 45.0084 17.605 46.2869 16.0377 47.1293C11.6725 49.0436 6.87642 48.3774 3.46488 44.9618C1.25335 42.7168 0.010065 39.7007 0 36.5563C0.0150975 33.1351 1.23397 30.9981 3.58856 28.6718C3.58629 28.1697 3.59057 27.6013 3.62618 27.103C3.85364 23.8348 5.36994 20.7887 7.84455 18.6289C10.2327 16.5594 13.6053 15.2593 16.7838 15.4775Z" fill="#FBC88C"/>
<path id="Vector_2" d="M67.695 15.9942C70.0386 15.6449 73.5854 17.1054 75.4696 18.4862C78.2156 20.4829 80.0545 23.4817 80.5833 26.8256C80.6707 27.4162 80.7224 28.0358 80.7719 28.6317C82.9533 30.1629 84.432 32.4961 84.881 35.1152C85.8628 40.6929 80.6087 47.9237 74.9304 48.5059C72.5748 48.7473 70.0934 48.4925 68.0533 47.2339C68.5856 45.7008 69.262 43.9504 69.4784 42.3491C69.8824 39.3586 69.8053 36.0842 69.7921 33.039C69.7755 29.2115 69.9722 25.2254 69.3442 21.4594C69.0252 19.5469 68.2632 17.8368 67.695 15.9942Z" fill="#E1E1E0"/>
<path id="Vector_3" d="M3.58856 28.6718C3.58629 28.1697 3.59057 27.6013 3.62618 27.103C3.85365 23.8348 5.36994 20.7888 7.84455 18.6289C10.2327 16.5594 13.6053 15.2594 16.7838 15.4775C14.4548 21.2566 14.0461 24.9178 14.3182 31.0835C14.4677 34.4676 14.0907 38.0526 14.4628 41.4528C14.5477 42.4885 15.4716 46.2805 16.0377 47.1293C11.6725 49.0437 6.87642 48.3774 3.46488 44.9618C1.25335 42.7168 0.010065 39.7007 0 36.5563C0.0150975 33.1351 1.23397 30.9981 3.58856 28.6718Z" fill="#E1E1E0"/>
<path id="Vector_4" d="M44.6335 24.793C44.8284 25.9858 44.7718 30.408 44.7002 31.6954C45.8002 32.621 46.4647 33.4707 46.5046 35.0121C46.5746 37.7269 46.5137 40.604 46.4815 43.317C46.5146 44.7957 46.6507 46.3126 45.5068 47.4666C43.8785 49.1094 40.2854 49.1544 38.666 47.4713C37.5162 46.2763 37.5213 44.906 37.5551 43.3659C37.5821 40.2277 37.1369 36.8295 37.8298 33.768C38.0608 32.747 39.3122 32.1702 39.5341 31.2699L39.616 31.4621C39.9918 31.6601 41.7064 31.2526 42.5264 31.3259C43.5611 31.4184 43.5792 31.4402 44.5856 31.7485C44.6776 29.4722 44.5603 27.0955 44.6335 24.793Z" fill="#DBA169"/>
<path id="Vector_5" d="M39.762 23.7769C39.8435 23.6631 39.9279 23.5514 40.0151 23.4417C41.3962 21.718 44.4564 22.2736 44.6336 24.7929C44.5603 27.0955 44.6776 29.4721 44.5856 31.7485C43.5793 31.4402 43.5611 31.4184 42.5265 31.3258C41.7064 31.2526 39.9918 31.6601 39.616 31.4621L39.5341 31.2698C39.749 28.8309 39.3796 26.4018 39.762 23.7769Z" fill="#EE9653"/>
<path id="Vector_6" d="M50.169 21.3588C50.7916 21.3106 52.0393 21.2832 52.7828 21.3732C56.078 21.7725 60.9402 21.3345 63.5554 23.5833C64.5362 24.4268 64.4329 25.9326 64.3846 27.0429C63.569 28.2985 63.0889 28.9775 61.6298 29.5038C59.7779 29.5139 57.715 29.1557 55.8304 28.9258C53.9363 28.5618 50.2692 28.8987 48.6968 27.8764C45.6101 25.87 46.84 22.1959 50.169 21.3588Z" fill="white"/>
<path id="Vector_7" d="M30.8484 21.3947C34.3017 21.2097 35.5558 21.3704 36.7732 24.8128C35.7942 28.3863 34.2121 28.4254 30.8855 28.6785C29.0226 28.8202 26.9307 28.9734 25.0868 29.2279C24.4944 29.3437 23.896 29.4279 23.2944 29.48C21.2301 29.6498 19.2824 28.2695 19.1386 26.1478C19.0834 25.2256 19.402 24.3197 20.0228 23.6331C21.7765 21.6591 28.1664 21.5541 30.8484 21.3947Z" fill="white"/>
<path id="Vector_8" d="M54.2647 31.4111C56.3861 31.3874 57.9373 32.0178 59.1899 33.8033C59.6931 34.3844 60.6796 36.087 60.2646 36.9228C58.7028 40.0679 57.3544 36.02 56.1822 35.1606C55.7947 34.8766 55.1601 34.7872 54.9604 34.7456C53.7724 34.6917 53.4526 34.8301 52.4321 35.3704C51.9193 36.0484 50.8238 39.0491 49.3878 37.8406C48.1971 36.8386 49.1192 34.4696 49.9731 33.4742C51.1414 32.1127 52.4854 31.5671 54.2647 31.4111Z" fill="#DBA169"/>
<path id="Vector_9" d="M29.6801 31.4022C32.6177 31.1053 36.1493 33.7915 35.698 36.9536C35.651 37.2819 35.5812 37.5346 35.3054 37.7489C32.627 38.7545 33.3526 35.7603 31.5397 34.987C31.3378 34.9008 30.6762 34.793 30.426 34.7448C29.989 34.7311 29.4213 34.7587 28.9734 34.7668C27.2691 35.7617 27.9417 36.0515 26.9843 37.1754C24.4576 40.1418 23.65 35.3807 25.5341 33.539C27.0174 32.089 27.5157 31.6545 29.6801 31.4022Z" fill="#DBA169"/>
<path id="Vector_10" d="M42.2288 85.3985C47.9156 81.7438 53.506 76.8623 59.1654 73.3716C62.8832 71.0786 72.4652 76.1377 75.0896 78.9971C78.0319 82.2032 81.5833 86.4795 81.7205 91.07C81.8441 95.196 77.7979 95.0065 75.0181 94.9942L28.2762 94.9866L14.5277 94.9946C12.0761 94.9962 9.6058 95.0248 7.17283 94.9322C5.55299 94.8706 3.70203 93.2594 3.63976 91.6591C3.51696 88.5024 5.95912 84.2276 7.80642 81.8356C11.6899 76.8074 16.9749 73.6539 23.3027 72.8604C23.6913 72.7931 24.3274 72.7852 24.6609 72.9954C30.6436 76.7692 36.3538 81.4695 42.2288 85.3985Z" fill="#E1E1E0"/>
<path id="Vector_11" d="M16.9501 58.668C20.226 56.3977 28.8306 50.7803 32.8808 51.9552L33.4761 51.9939C34.3153 51.8054 35.8945 51.8902 36.8018 51.8958L42.8001 51.9231L49.8517 51.8834C52.1583 51.8588 54.9607 51.6107 57.0833 52.6532C60.5977 54.3795 64.3758 56.4586 67.6097 58.6703C64.6363 63.8943 60.9723 68.0616 55.9545 71.4633C50.4575 75.1899 43.8148 76.5643 37.2787 75.2181C30.1096 73.7416 24.1361 68.6969 19.8197 62.9862C18.8118 61.6527 17.8868 60.0798 16.9501 58.668Z" fill="#E1E1E0"/>
<path id="Vector_12" d="M33.4761 51.9939C39.3535 52.137 45.7233 52.0315 51.6328 52.0149C51.5159 52.5146 51.4079 53.1057 51.243 53.5837C49.0603 59.9149 40.4679 61.6445 35.6411 57.2275C34.1174 55.8332 32.9846 54.0259 32.8808 51.9552L33.4761 51.9939Z" fill="#DBA169"/>
</g>
</svg>
